<svg width="558" height="428" xmlns="http://www.w3.org/2000/svg" xmlns:xlink="http://www.w3.org/1999/xlink" overflow="hidden"><defs><clipPath id="clip0"><rect x="361" y="146" width="558" height="428"/></clipPath></defs><g clip-path="url(#clip0)" transform="translate(-361 -146)"><path d="M501.04 167 778.96 167 792.002 219.162 842.352 219.162C873.085 219.162 898 244.073 898 274.803L898 497.359C898 528.089 873.085 553 842.352 553L437.648 553C406.915 553 382 528.089 382 497.359L382 274.803C382 244.073 406.915 219.162 437.648 219.162L487.998 219.162Z" stroke="#70AD47" stroke-width="40" stroke-miterlimit="8" fill="#FFFFFF" fill-rule="evenodd"/><path d="M534 377.5C534 318.682 581.458 271 640 271 698.542 271 746 318.682 746 377.5 746 436.318 698.542 484 640 484 581.458 484 534 436.318 534 377.5Z" stroke="#70AD47" stroke-width="40" stroke-miterlimit="8" fill="#FFFFFF" fill-rule="evenodd"/></g></svg>